<?xml version="1.0" encoding="utf-8"?>
<!-- Generator: Adobe Illustrator 24.0.1, SVG Export Plug-In . SVG Version: 6.00 Build 0)  -->
<svg version="1.1" id="Layer_1" xmlns="http://www.w3.org/2000/svg" xmlns:xlink="http://www.w3.org/1999/xlink" x="0px" y="0px"
	 viewBox="0 0 246 69.6" style="enable-background:new 0 0 246 69.6;" xml:space="preserve">
<style type="text/css">
	.st0{fill:#FFFFFF;}
	.st1{fill:#FC04B9;}
</style>
<path id="LOGO_MF" class="st0" d="M222.1,40.2l-2.9-9.7h-0.3V40c0,0.5-0.4,0.9-0.9,0.9h-32.5c-0.5,0-0.9-0.4-0.9-0.9
	s0.4-0.9,0.9-0.9h31.6v-9.4c0-0.5,0.4-0.9,0.9-0.9c0,0,0,0,0,0h1.8c0.4,0,0.7,0.3,0.8,0.6l2.9,9.7h20.1l-5.5-12.7
	c-0.2-0.4,0-0.9,0.3-1.1c3.2-2,4.4-4.9,4.4-10.2c0-9.9-4.7-13.4-18-13.4h-63.7v12.1c0,0.4-0.3,0.8-0.8,0.9c-0.4,0-0.9-0.3-0.9-0.7
	c-1.8-9-8.2-12.3-23.5-12.3h-21.6v27.1c0,0.3-0.1,0.5-0.3,0.7l-1.3,1.1c-0.2,0.2-0.6,0.3-0.9,0.2c-0.3-0.1-0.5-0.4-0.6-0.7
	l-5.2-28.4H72.4l-6.3,34.1c-0.1,0.5-0.5,0.8-1,0.7c-0.5,0-0.8-0.4-0.8-0.9v-34H35.3l-2.2,8.4c-0.1,0.4-0.5,0.7-0.9,0.7
	c-0.4,0-0.8-0.3-0.8-0.7l-2.1-8.4H1.8v37.4h17v-8.3c0-0.4,0.3-0.7,0.7-0.8c0.4-0.1,0.8,0.1,1,0.5l4.4,8.7H41l4.4-8.7
	c0.2-0.4,0.6-0.5,1-0.5c0.4,0.1,0.7,0.4,0.7,0.8v8.3h10.8c0.5,0,0.9,0.4,0.9,0.9s-0.4,0.9-0.9,0.9H46.2c-0.5,0-0.9-0.4-0.9-0.9v-5.5
	l-3,5.9c-0.1,0.3-0.5,0.5-0.8,0.5H24.2c-0.3,0-0.6-0.2-0.8-0.5l-3-5.9V40c0,0.5-0.4,0.9-0.9,0.9H0.9C0.4,40.9,0,40.5,0,40V0.9
	C0,0.4,0.4,0,0.9,0h29.2c0.4,0,0.8,0.3,0.8,0.7l1.4,5.7l1.5-5.7C33.9,0.3,34.2,0,34.6,0h30.6c0.5,0,0.9,0.4,0.9,0.9c0,0,0,0,0,0
	v25.2l4.7-25.4C70.9,0.3,71.3,0,71.7,0H107c0.4,0,0.8,0.3,0.9,0.7l4.9,26.5V0.9c0-0.5,0.4-0.9,0.9-0.9h22.5c13,0,20.1,2.5,23.5,8.7
	V0.9c0-0.5,0.4-0.9,0.9-0.9c0,0,0,0,0,0h64.6c14.4,0,19.8,4.1,19.8,15.1c0,5.5-1.4,9-4.6,11.3l5.7,13.2h0c0.1,0.3,0.1,0.6-0.1,0.8
	c-0.2,0.2-0.4,0.4-0.7,0.4H223C222.6,40.9,222.2,40.6,222.1,40.2L222.1,40.2z M166.2,40.9c-0.5,0-0.9-0.4-0.9-0.9
	c0-0.5,0.4-0.9,0.9-0.9h3.5c0.5,0,0.9,0.4,0.9,0.9s-0.4,0.9-0.9,0.9H166.2z M182.5,28.4c-0.5,0-0.9-0.4-0.9-0.9v-2.9
	c0-0.5,0.4-0.9,0.9-0.9h10.4v-6.5h-10.4c-0.5,0-0.9-0.4-0.9-0.9v-3c0-0.5,0.4-0.9,0.9-0.9h14.7c0.5,0,0.9,0.4,0.9,0.9v3.5
	c0,0.5-0.4,0.9-0.9,0.9c-0.5,0-0.9-0.4-0.9-0.9v-2.6h-12.9v1.2h10.4c0.5,0,0.9,0.4,0.9,0.9v8.3c0,0.5-0.4,0.9-0.9,0.9h-10.4v1.2
	h13.8c0.5,0,0.9,0.4,0.9,0.9s-0.4,0.9-0.9,0.9L182.5,28.4z M91.1,26.5h-1.8c-0.5,0-0.9-0.4-0.9-0.9s0.4-0.9,0.9-0.9h0.9l-0.8-8.7
	h-0.2l-0.5,5.4c0,0.5-0.5,0.8-1,0.8c-0.5,0-0.8-0.5-0.8-1c0,0,0,0,0,0l0.5-6.2c0-0.5,0.4-0.8,0.9-0.8h1.8c0.5,0,0.8,0.3,0.9,0.8
	l1,10.5c0,0.2-0.1,0.5-0.2,0.7C91.6,26.4,91.3,26.5,91.1,26.5L91.1,26.5z M219.2,19.9c-0.5,0-0.9-0.4-0.9-0.9v-8.5
	c0-0.5,0.4-0.9,0.9-0.9h0.9c3.3,0,4.7,1.5,4.7,5.1s-1.4,5.1-4.7,5.1L219.2,19.9z M220.1,18.1c2.1,0,2.9-0.5,2.9-3.4
	s-0.9-3.4-2.9-3.4V18.1z"/>
<path class="st1" d="M63.8,69.3c-0.4-0.2-0.8-0.5-1.2-0.8c-0.3-0.3-0.6-0.6-0.8-1c-0.2-0.2-0.3-0.5-0.4-0.7l0-0.3
	c0-0.2-0.1-0.5-0.1-0.7c0-0.3,0-0.6,0.1-0.9c0.1-0.3,0.1-0.6,0.3-0.8c0.1-0.1,0.2-0.2,0.3-0.3c0-0.1,0-0.1-0.1-0.2
	c-0.1-0.4-0.1-0.9,0-1.4c0.1-0.4,0.2-0.8,0.3-1.3c0.1-0.3,0.2-0.7,0.4-1c0-0.1,0.1-0.2,0.1-0.2c0,0,0-0.1,0-0.1
	c-0.1-0.5,0-0.9,0.2-1.3c0.1-0.1,0.1-0.2,0.2-0.3c0-0.5,0.1-1,0.3-1.4c0.1-0.4,0.4-0.8,0.7-1.1l-0.1-0.2c-0.1-0.4-0.1-0.9,0-1.3
	c0.1-0.3,0.2-0.6,0.3-0.9l0.1-0.1c0.1-0.3,0.2-0.5,0.2-0.8c0-0.3,0.1-0.5,0.2-0.8l0.3-0.7c0.2-0.5,0.4-0.9,0.6-1.5s0.4-1.2,0.6-1.8
	s0.4-1.3,0.5-1.9c0.1-0.3,0.2-0.6,0.2-0.9h-0.3c-0.3,0.1-0.6,0.2-0.9,0.3c-0.4,0.2-0.8,0.3-1.2,0.4l-0.6,0.1c0,0-0.1,0-0.7,0.3
	c-0.4,0.2-0.9,0.4-1.4,0.5c-0.8,0.1-1.5-0.4-1.6-1.2c0,0,0,0,0,0c0-0.1-0.1-0.3,0-0.4c0-0.2,0-0.4,0.1-0.6c0.4-1,1-1.9,1.5-2.8
	c0.4-0.8,1.2-1.4,2-1.7l3.7-0.7c0.2-0.1,0.5-0.2,0.8-0.3c0.2-0.1,0.4-0.2,0.7-0.2c0.1-0.3,0.1-0.6,0.2-0.9c0.1-0.5,0.3-0.9,0.5-1.3
	c0.1-0.4,0.2-0.8,0.3-1.2c0.1-0.5,0.2-0.9,0.4-1.3c0-0.1,0.1-0.3,0.2-0.6s0.2-0.6,0.4-1c0.1-0.4,0.3-0.8,0.5-1.2
	c0.2-0.3,0.4-0.6,0.6-0.9c0-0.3,0.1-0.7,0.2-1c0.1-0.5,0.3-1,0.4-1.4c0.2-0.4,0.4-0.9,0.6-1.3c0.2-0.4,0.5-0.7,0.8-0.9
	c0.1,0,0.2-0.2,0.2-0.3c0-0.3,0.1-0.6,0.3-0.8l0.1-0.1l0.5-0.7c0.2-0.3,0.5-0.6,0.8-0.9c0.3-0.3,0.6-0.6,0.9-0.9
	c0.3-0.3,0.7-0.4,1.1-0.5H78c0.1,0,0.2,0,0.2,0c0.2-0.1,0.3-0.1,0.5-0.2c0.4-0.1,0.8,0,1.2,0.1c0.3,0.1,0.6,0.2,0.9,0.3l0.2,0
	l0.1,0.1c0.5,0.3,0.9,0.9,1.1,1.5c0,0.1,0,0.2,0,0.3c0.1,0.1,0.2,0.2,0.3,0.4c0.1,0.2,0.1,0.3,0.2,0.5c0.1,0.2,0.2,0.4,0.3,0.7
	c0.1,0.3,0.2,0.5,0.2,0.8c0.1,0.5,0.1,1-0.1,1.4l-0.6,1.7L82.4,28c-0.1,0.1-0.3,0.2-0.4,0.3c-0.4,0.1-0.9,0-1.2-0.3
	c-0.2-0.2-0.4-0.5-0.5-0.7c-0.1-0.2-0.2-0.4-0.3-0.6l-0.2-0.2c-0.1,0.1-0.1,0.1-0.2,0.2c-0.2,0.3-0.4,0.5-0.6,0.8
	c-0.2,0.4-0.4,0.6-0.6,0.9c-0.2,0.3-0.4,0.5-0.6,0.6c0,0.5-0.2,1-0.4,1.4c-0.3,0.4-0.5,0.8-0.8,1.2c-0.3,0.5-0.6,1-0.7,1.5
	c-0.2,0.6-0.4,1.1-0.7,1.7c-0.1,0.2-0.2,0.4-0.2,0.6c-0.1,0.3-0.2,0.6-0.3,0.9l-0.2,0.4c0.1-0.1,0.3-0.2,0.4-0.2l4.5-0.6
	c0.1,0,0.1,0,0.2,0c0.3,0,0.6,0.1,0.8,0.4c0.1,0.2,0.2,0.4,0.2,0.6v0.4c0,0.3-0.1,0.5-0.3,0.7c-0.2,0.2-0.3,0.4-0.5,0.6
	c-0.2,0.2-0.4,0.4-0.6,0.5L79,39.4c0,0.4-0.2,0.8-0.6,1.1c-0.3,0.3-0.7,0.5-1.1,0.6h-0.2c-0.1,0.2-0.3,0.4-0.6,0.5
	c-0.5,0.3-1.1,0.5-1.7,0.6l-1.4,0.3c-0.3,0.1-0.7,0.2-1,0.3C72.2,42.8,72,43,72,43.2c0,0.5-0.2,1-0.3,1.5c-0.2,0.5-0.4,1.1-0.6,1.5
	s-0.4,0.9-0.5,1.3c-0.1,0.2-0.1,0.5-0.1,0.7l0,0.3l-0.1,0.1c-0.2,0.4-0.4,0.8-0.5,1.3c-0.1,0.5-0.2,0.9-0.3,1.4s-0.2,1-0.4,1.5
	c-0.1,0.5-0.3,0.9-0.6,1.3c0,0.5,0,0.9-0.2,1.4c-0.1,0.4-0.2,0.8-0.3,1.2l0,0.2c-0.1,0.4-0.2,0.7-0.3,1.1c-0.1,0.4-0.2,0.8-0.3,1.2
	l0,0.2c-0.1,0.4-0.3,0.9-0.5,1.3c-0.2,0.3-0.2,0.7-0.2,1.1v0.1l-0.2,0.4c-0.1,0.2-0.1,0.4-0.2,0.6c0,0.1,0,0.2,0,0.4
	c0.1,0.1,0.2,0.3,0.2,0.5c0,0.3,0.1,0.6,0,0.9c0,0.4-0.2,0.7-0.4,0.9l-0.2,3c0,0.5-0.4,0.8-0.9,0.9c-0.1,0-0.3,0-0.4,0h-0.1
	C64.5,69.6,64.1,69.5,63.8,69.3z"/>
<path class="st1" d="M187,30.5c-0.5-0.2-1-0.4-1.5-0.4c-0.1,0.3-0.8,0.4-1.1,0.5c-0.2,0.1-0.3,0.2-0.4,0.3c-0.1,0.1-0.2,0.2-0.3,0.3
	c-0.1,0.1-0.2,0.3-0.3,0.5c-0.1,0.1-0.1,0.2-0.2,0.4c-0.2,0.1-0.4,0.2-0.5,0.3l-3,3.2c-0.5,0.1-1,0.4-1.4,0.8
	c-0.2,0.2-0.3,0.3-0.5,0.5c-0.1,0-0.2-0.1-0.3-0.1h-0.1c-0.3,0.1-0.6,0.3-0.8,0.6c0,0,0,0,0-0.1c0.2-0.3,0.3-0.7,0.2-1
	c0-0.2-0.1-0.3-0.2-0.5c0.1-0.2,0.2-0.5,0.3-0.7c0.1-0.4,0.2-0.7,0.3-1s0.1-0.6,0.2-0.9c0-0.1,0-0.1,0-0.2l-0.4-0.1l0.4-0.1
	c0-0.2,0-0.3,0.1-0.5c0.1-0.3,0.2-0.7,0.3-1.1c0.1-0.4,0.3-0.8,0.4-1.1c0.1-0.3,0.2-0.6,0.3-0.9c0.1-0.4,0.2-0.8,0.1-1.1
	c0-0.2,0-0.5,0.2-0.6c0.2-0.3,0.4-0.6,0.5-0.9c0.1-0.3,0.3-0.7,0.4-1c0.1-0.3,0.2-0.6,0.3-0.8c0-0.1,0.1-0.2,0.1-0.3l0.2-0.3
	c0.1-0.2,0.2-0.5,0.1-0.7c0,0,0-0.1,0-0.1c0-0.2,0-0.4,0-0.6c0-0.2-0.1-0.5-0.2-0.7c-0.1-0.3-0.2-0.6-0.4-0.8
	c-0.2-0.2-0.4-0.5-0.6-0.6c-0.3-0.2-0.7-0.3-1-0.3c-0.4,0.1-0.7,0.3-1,0.6c-0.2,0.2-0.4,0.4-0.6,0.5c-0.3,0.1-0.6,0.2-0.9,0.3
	c-0.2,0.1-0.3,0.1-0.5,0.2c0-0.1,0.1-0.3,0.1-0.4c0.2-0.3,0.3-0.7,0.5-1c0.2-0.3,0.4-0.6,0.6-0.9c0.2-0.3,0.4-0.5,0.5-0.6l0.1-0.1
	V19c0-0.3,0-0.6,0-0.9c-0.1-0.7-0.3-1.4-0.6-2.1c-0.2-0.7-0.8-1.2-1.5-1.2c-0.1,0-0.2,0-0.2,0c-0.6,0.2-1.2,0.5-1.6,1
	c-0.5,0.5-1,1.1-1.5,1.7c-0.5,0.6-0.9,1.2-1.2,1.7c-0.3,0.4-0.4,0.6-0.5,0.8c-0.1,0.1-0.2,0.1-0.2,0.2l-1.9,2.2
	c-0.6,0.7-1.2,1.5-1.7,2.3l0,0l-0.2,0.1c-0.4,0.2-0.7,0.5-0.8,0.9c-0.1,0-0.1,0.1-0.2,0.1c-0.4,0.3-0.6,0.7-0.5,1.2
	c-0.3,0.6-0.5,1.3-0.6,2c-0.1,0.8-0.1,1.7,0,2.5v0.2l0.2,0.1c0.1,0.1,0.1,0.2,0.2,0.2c0,0,0,0.1,0.1,0.1l-1.1,1.4
	c-0.4,0.5-0.9,1.1-1.3,1.6s-0.9,1-1.4,1.5l-0.1,0.1c-0.5,0.4-1,0.9-1.5,1.2c-0.5,0.4-1,0.9-1.4,1.4c-0.5,0.1-0.9,0.4-1.2,0.8
	c-0.1,0.2-0.4,0.4-0.7,0.4l-0.3,0.1l-0.2,0.1c-0.5,0.4-1.1,0.7-1.8,0.9c-0.9,0.2-1.7,0.6-2.4,1l-1.8,0.3c-1.1,0-1.4-0.2-1.4-0.3
	c-0.3-0.4-0.6-0.9-0.8-1.4v-0.1c0-0.2,0-0.4,0-0.6c0.7,0.2,1.3,0.3,2,0.1c0.7-0.1,1.3-0.4,1.9-0.8c0.5-0.4,1-0.8,1.5-1.2
	c0.1-0.1,0.3-0.2,0.4-0.2c0.2-0.1,0.4-0.2,0.6-0.3c0.2-0.1,0.4-0.2,0.6-0.4c0.2-0.2,0.3-0.5,0.4-0.8l0.1-0.1
	c0.4-0.5,0.8-0.9,1.3-1.3c0.6-0.5,1-1.1,1.4-1.7L157,34c0.1-0.2,0.2-0.4,0.4-0.7c0.1-0.2,0.2-0.4,0.3-0.5l0.1-0.1
	c0.5-0.2,0.9-0.7,1-1.2c0-0.1,0-0.2,0-0.2l0.2-0.3l0.1-0.1c0.3-0.5,0.4-1.1,0.5-1.7c0.1-0.6,0-1.1-0.1-1.7c-0.1-0.7-0.4-1.5-0.7-2.1
	c-0.3-0.6-0.7-1.2-1.2-1.8l-0.3-0.2c-0.2-0.1-0.5-0.2-0.8-0.2c-0.1,0-0.3,0-0.4,0l-0.3-0.2l-0.7,0.3l-0.5,0.1l-0.1,0.2l-2.1,0.6
	l0,0.3c-0.3,0.1-0.6,0.3-0.8,0.5c-0.1,0.1-0.3,0.2-0.3,0.3H151l-0.1,0.5l-0.3,0.2l-0.3,0.3c-0.5,0.4-1,0.9-1.4,1.4
	c-0.4,0.4-0.7,0.8-1.1,1.2l-2.1,2.6l-0.1,0.2l-0.1,0.1c0,0.1-0.1,0.1-0.2,0.1l-0.3,0.3l-0.1,0.1c-0.4,0.8-0.7,1.6-1,2.4
	c-0.3,0.8-0.6,1.5-0.8,2.3c-0.2,0.8-0.3,1.7-0.4,2.5c-0.1,1,0,1.9,0.1,2.9v0.1l0.2,0.3l0.1,0.1c0,0.1,0.1,0.1,0,0.2l-0.1,0.2
	c-0.2-0.3-0.4-0.6-0.7-0.8c-0.4-0.3-0.8-0.5-1.2-0.8c-0.4-0.2-0.7-0.5-1-0.7c-0.2-0.1-0.3-0.3-0.4-0.5c0-0.1-0.1-0.3-0.1-0.4
	c-0.1-0.2-0.2-0.3-0.4-0.4c-0.6-0.4-1.1-0.9-1.5-1.5c-0.4-0.6-0.7-1.2-1.1-1.8c0.1-0.1,0.2-0.2,0.2-0.3c0.2-0.2,0.5-0.5,0.8-0.8
	c0.3-0.3,0.6-0.6,0.9-0.9c0.3-0.3,0.6-0.7,0.7-1.2c0.1-0.2,0.4-0.4,0.6-0.5c0.5-0.2,0.9-0.7,1-1.3v-0.1c0,0,0-0.2,0.5-0.6
	s1-0.8,1.6-1.2c0.6-0.4,1.2-0.8,1.7-1.2c0.3-0.2,0.6-0.5,0.8-0.9c0.3-0.2,0.6-0.4,0.8-0.6c0.4-0.3,0.6-0.8,0.5-1.3
	c-0.1-0.6-0.6-1-1.2-1h-1.1l-0.1,0.1l0-0.2l-0.5,0.1c-0.3,0.1-0.6,0.1-0.8,0.3c-0.4,0.2-0.7,0.4-1,0.6c-0.3,0.2-0.6,0.5-0.9,0.8
	c-0.2,0.2-0.4,0.4-0.6,0.7h-0.1c-0.1,0-0.2,0.1-0.6,0.4c-0.2,0.2-0.4,0.4-0.7,0.6l-0.7,0.7l-0.2,0.2h-0.2c-0.3,0.1-0.6,0.2-0.8,0.4
	c-0.1,0.1-0.2,0.2-0.3,0.3c-0.3,0.1-0.6,0.2-0.9,0.4c-0.3,0.2-0.7,0.5-1,0.7s-0.6,0.5-0.8,0.7c-0.1,0.1-0.2,0.2-0.4,0.3
	c-0.1,0-0.1,0-0.2,0.1l0.1-0.2c0.2-0.4,0.3-0.9,0.5-1.3s0.3-0.9,0.5-1.4c0.2-0.6,0.3-1.2,0.4-1.8c0-0.4,0.1-0.8,0.3-1.2
	c0.2-0.4,0.4-0.9,0.6-1.3c0.2-0.4,0.4-0.9,0.5-1.3c0.2-0.5,0.3-1,0.3-1.5c0-0.3,0.2-0.7,0.4-0.9c0.3-0.4,0.6-0.8,0.8-1.2
	c0.3-0.7,0.6-1.5,0.9-2.3c0.4-0.8,0.5-1.7,0.4-2.5c-0.1-0.5-0.3-0.9-0.5-1.3c-0.2-0.3-0.3-0.7-0.4-1c-0.1-0.5-0.3-0.9-0.7-1.3
	c-0.4-0.4-0.9-0.5-1.5-0.4c-0.4,0.1-0.8,0.3-1.1,0.6c-0.4,0.3-0.6,0.8-0.5,1.3l0,0.1c0,0.1-0.1,0.1-0.2,0.3
	c-0.3,0.3-0.5,0.6-0.6,0.9l-0.4,1.4c-0.2,0.7-0.4,1.4-0.7,2.3l-0.8,2.8c-0.3,1-0.5,1.9-0.8,2.7s-0.4,1.6-0.5,2.2
	c-0.1,0.4-0.2,0.8-0.2,1.2c0,0.2,0,0.4-0.1,0.5c-0.2,0.3-0.4,0.7-0.6,1c-0.2,0.4-0.4,0.8-0.6,1.2c-0.2,0.4-0.3,0.8-0.2,1.3
	c-0.2,0.3-0.4,0.7-0.5,1.1c-0.1,0.4-0.2,0.8-0.2,1.1s-0.1,0.7-0.2,1.1c-0.1,0.3-0.2,0.7-0.3,1c-0.1,0.5-0.3,0.9-0.5,1.4
	c-0.2,0.4-0.4,0.8-0.7,1.1c-0.2,0.2-0.4,0.5-0.7,0.8c-0.3,0.3-0.5,0.8-0.4,1.2l0.2,0.6c0,0.2,0.1,0.4,0.1,0.5
	c-0.1,0.1-0.2,0.2-0.3,0.4c-0.2,0.2-0.3,0.4-0.4,0.6h0c-0.2,0-0.3,0.1-0.7,0.5c-0.3,0.3-0.6,0.6-0.9,0.9c-0.3,0.3-0.6,0.6-0.8,0.9
	l-0.4,0.5l-1.4,1.3l-0.1,0.1c-0.2,0.2-0.5,0.4-0.7,0.5c-0.5,0.2-0.9,0.5-1.1,1c-0.3,0.1-0.7,0.2-0.9,0.4c-0.3,0.2-0.5,0.3-0.7,0.5
	c-0.2,0.2-0.3,0.3-0.5,0.5c-0.2,0.1-0.3,0.2-0.5,0.4c-0.2,0.2-0.5,0.4-0.8,0.6c-0.3,0.2-0.7,0.5-1,0.7c-0.2,0.1-0.3,0.2-0.5,0.3
	c0-0.3,0-0.7,0.1-1c0.1-0.5,0.3-1.1,0.5-1.6c0.1-0.2,0.1-0.3,0.1-0.5l-0.1-0.3c0-0.3,0.1-0.6,0.3-0.9c0.4-0.6,0.6-1.2,0.6-1.9
	c0-0.3,0.1-0.6,0.3-0.9c0.2-0.4,0.4-0.8,0.7-1.2c0.3-0.4,0.6-0.9,0.9-1.4c0.3-0.5,0.6-1.1,0.7-1.7c0.1-0.4,0.3-0.9,0.6-1.3
	c0.3-0.4,0.5-0.9,0.8-1.3c0.3-0.4,0.5-0.9,0.7-1.4c0.2-0.5,0.3-1.1,0.2-1.7l-0.3-1.1c0-0.1,0-0.2,0-0.3c0-0.1,0-0.2,0-0.3
	c-0.1-0.6-0.5-1.1-1-1.4c-0.3-0.3-0.7-0.4-1.2-0.5H118c-0.6,0.1-1.1,0.4-1.3,0.9c-0.1,0.1-0.2,0.3-0.3,0.4c-0.1,0-0.2,0.1-0.4,0.2
	l-0.2,0.2c-1.4,1.3-2.8,2.6-4.2,4c-1.5,1.4-2.8,2.9-3.9,4.5l-0.1,0.1c-0.1,0.2-0.2,0.3-0.4,0.4l-0.9,0.9c-0.4,0.3-0.7,0.7-1.1,1
	c-0.4,0.4-0.7,0.8-1,1.3c-0.1,0.2-0.3,0.5-0.5,0.6c-0.2,0.2-0.4,0.4-0.6,0.6l-0.8,1l0.2-0.3c0.2-0.4,0.4-0.9,0.6-1.4
	c0.2-0.4,0.3-0.9,0.4-1.3c0.4-0.4,0.7-0.9,0.7-1.5c0-0.4,0.2-0.8,0.4-1.1c0.2-0.3,0.3-0.5,0.4-0.8c0.1-0.3,0.2-0.7,0.1-1
	c0.2-0.1,0.3-0.2,0.4-0.3c0.2-0.2,0.3-0.4,0.4-0.6c0-0.1,0.1-0.3,0.1-0.4c0.4-0.1,0.6-0.4,0.7-0.8c0-0.3,0-0.5,0-0.8
	c0-0.3-0.1-0.5-0.3-0.8l-0.1-0.2v-0.3c-0.1-0.4-0.3-0.8-0.6-1.1c-0.2-0.2-0.5-0.4-0.7-0.6l0.3-0.1l-1.4-0.6
	c-0.1-0.1-0.3-0.1-0.4-0.2c-0.2,0-0.4,0-0.6,0c-0.2,0-0.5,0.1-0.6,0.3l-0.1,0.1h0c-0.1,0.1-0.1,0.2-0.1,0.3c0,0.2-0.1,0.3-0.1,0.5
	c0,0.2-0.1,0.3-0.2,0.5c-0.2,0.2-0.3,0.5-0.4,0.7c-0.1,0.3-0.1,0.7-0.1,1c-0.3,0.5-0.5,1.1-0.7,1.6c-0.2,0.5-0.4,1.1-0.6,1.6
	c-0.1,0.1-0.1,0.2-0.2,0.4l-0.1,0.3v0.1c0,0.1,0,0.1,0,0.2l-0.1,0.1c-0.3,0.3-0.5,0.7-0.3,1.2c0,0.1,0,0.2,0.1,0.3
	c-0.1,0.2-0.2,0.4-0.3,0.6c-0.1,0.3-0.2,0.6-0.3,0.9c-0.2,0.3-0.3,0.8-0.1,1.1c0,0,0,0,0,0c-0.3,0.2-0.4,0.6-0.4,0.9
	c0,0.3-0.1,0.6-0.2,0.9v0.1L98,45.7c-0.3,0.3-0.5,0.6-0.7,0.8S97,47,96.8,47.1c-0.5,0.5-1,1-1.5,1.5c-0.7,0.6-1.4,1.3-2,2
	c-0.2,0.2-0.4,0.4-0.6,0.6l0.6-0.8l-2.8,2.6c-0.3,0.2-0.6,0.5-1.1,0.9c-0.2,0.2-0.4,0.3-0.6,0.4l0.1-1c0.1-1,0.2-1.9,0.2-2.8
	c0.1-0.9,0.3-1.9,0.7-2.7c0.2-0.5,0.4-1,0.7-1.8c0.2-0.6,0.4-1.2,0.4-1.8c0.2-0.2,0.4-0.4,0.6-0.7c0.2-0.3,0.4-0.8,0.3-1.2
	c-0.1-0.5-0.3-0.9-0.5-1.2c-0.3-0.4-0.6-0.7-0.9-1c-0.2-0.2-0.5-0.4-0.8-0.5l0.3-0.1c0.3-0.1,0.6-0.2,0.9-0.2l1.2-0.2
	c0.4,0,0.8-0.4,0.9-0.8c0.1-0.3,0.1-0.6,0-0.9c-0.1-0.4-0.3-0.7-0.5-1c-0.3-0.4-0.6-0.7-1-1c-0.4-0.3-0.8-0.6-1.2-0.8
	c-0.3-0.2-0.7-0.3-1.1-0.3c-0.1,0-0.2,0-0.2,0l-0.5,0l-0.2,0c-0.4,0.2-0.9,0.4-1.4,0.5c-0.6,0.1-1.1,0.5-1.4,1
	c-0.1,0-0.2,0.1-0.3,0.1l0.2-0.3l-0.6,0.5l-0.1,0.1c-0.3,0.2-0.6,0.4-0.8,0.6c-0.3,0.2-0.5,0.4-0.7,0.6l-0.1,0.1
	c-0.6,0.5-1.2,1.1-1.8,1.7c-0.5,0.5-0.9,1.2-1.2,1.8c-0.5,0.2-0.9,0.6-1.1,1c-0.1,0.2-0.1,0.3-0.3,0.4h-0.1c-0.2,0-0.4,0.2-0.7,0.6
	c-0.2,0.3-0.4,0.6-0.6,1c-0.2,0.3-0.4,0.7-0.6,1.2c-0.2,0.1-0.3,0.2-0.4,0.3c-0.2,0.2-0.4,0.5-0.6,0.8c-0.2,0.3-0.3,0.7-0.4,1
	c-0.1,0.3-0.1,0.5-0.2,0.8c-0.2,0.1-0.4,0.2-0.5,0.4l-0.9,2c-0.2,0.3-0.4,0.7-0.5,1.1c-0.2,0.5-0.4,1.1-0.6,1.8
	c-0.2,0.6-0.3,1.3-0.4,2c-0.1,0.6-0.1,1.2,0,1.8c0.1,0.4,0.2,0.7,0.4,1.1c0.2,0.4,0.4,0.9,0.7,1.3c0.2,0.4,0.5,0.8,0.8,1.1
	c0.2,0.3,0.6,0.5,1,0.5h0l0,0c0.2,0,0.4,0.1,0.6,0.1h0.1c0.2,0,0.4,0,0.6-0.1c0.9,0,1.7-0.4,2.4-1c0.2-0.3,0.4-0.5,0.5-0.8
	c0.4-0.2,0.8-0.6,1-1c0.1-0.2,0.3-0.4,0.5-0.5c0.2,0,0.5-0.2,0.9-0.7c0.4-0.4,0.5-0.9,0.5-1.4c0,0,0-0.1,0-0.1
	c0.2-0.3,0.4-0.5,0.6-0.8c0.2-0.2,0.4-0.4,0.5-0.5l0.3-0.2c0.2-0.1,0.3-0.4,0.3-0.6v-0.3l0,0c0.5-0.4,0.8-0.8,1.1-1.4
	c0,0,0.1,0,0.1-0.1V52c-0.1,0.5-0.1,1.1-0.1,1.6c0,0.6,0.1,1.2,0.2,1.8c0.1,0.5,0.2,1,0.4,1.5c0.2,0.6,0.4,1.2,0.7,1.7
	c0.3,0.5,0.6,1,1.1,1.4c0.4,0.4,1.1,0.6,1.6,0.5c0.7-0.1,1.3-0.4,1.8-0.8c0.6-0.4,1.1-0.9,1.7-1.4c0.5-0.5,1.1-1.1,1.6-1.7
	c0.5-0.6,1.1-1.1,1.6-1.6l0.7-0.9l0.1-0.1l0-0.2c0-0.1,0.1-0.1,0.1-0.2c0.2-0.2,0.3-0.4,0.5-0.6c0.3-0.2,0.5-0.5,0.7-0.8
	c0.2-0.3,0.4-0.6,0.6-0.9l0.1-0.1v0l0.1-0.1l0.1-0.1c0.1,0.2,0.2,0.4,0.3,0.6c0.1,0.3,0.3,0.6,0.5,0.8l0.3,0.5v0
	c0,0.1,0,0.1,0.1,0.2l0.2,0.7l0.2-0.2c0.2,0.2,0.4,0.3,0.6,0.3c0.4,0.1,0.7,0.2,1.1,0.1c0.7-0.1,1.3-0.5,1.7-1
	c0.4-0.4,0.8-0.9,1.1-1.4c0.1-0.2,0.3-0.5,0.6-0.7c0.2-0.3,0.5-0.6,0.8-0.9s0.6-0.7,0.9-1c0.3-0.3,0.5-0.6,0.7-1
	c0.2-0.4,0.4-0.7,0.7-1c0.4-0.3,0.6-0.7,0.8-1.2c0.1-0.1,0.3-0.2,0.3-0.3l0.8-1.2c0.6-0.5,1.1-1.1,1.5-1.8c0.2-0.4,0.5-0.7,0.8-1
	l0,0.1c-0.2,0.7-0.5,1.4-0.7,2.1c-0.2,0.2-0.3,0.4-0.3,0.7c-0.1,0.4-0.2,0.7-0.3,1.1c-0.1,0.4-0.1,0.8-0.2,1.1s-0.1,0.7-0.2,0.9
	c-0.2,0.7-0.4,1.5-0.6,2.3c-0.2,1-0.3,2-0.1,2.9c0.1,0.5,0.2,0.9,0.4,1.4c0.2,0.5,0.4,0.9,0.6,1.4c0.2,0.4,0.4,0.8,0.7,1.1h0
	l0.1,0.1c0.2,0.3,0.5,0.6,0.9,0.7c0.1,0.1,0.2,0.1,0.4,0.2c0.2,0.1,0.4,0.1,0.7,0.1c0.1,0,0.2,0,0.3,0c0.4,0,0.8-0.2,1.1-0.5
	c0.1-0.1,0.2-0.3,0.3-0.4c0.3-0.1,0.6-0.2,0.9-0.4c0.3-0.2,0.6-0.5,1-0.8l0.9-0.8c0.2-0.2,0.5-0.4,0.8-0.6c0.5-0.3,0.9-0.8,1.2-1.3
	c0.1-0.3,0.3-0.5,0.6-0.7c0.3-0.1,0.6-0.2,0.9-0.5c0.2-0.2,0.4-0.5,0.6-0.7c0.2-0.3,0.3-0.5,0.5-0.7l0.2-0.3
	c0.3-0.1,0.6-0.3,0.8-0.6c0.1-0.1,0.2-0.3,0.3-0.4c0,0.4,0,0.9,0.1,1.3c0.1,0.8,0.4,1.5,0.8,2.2c0.2,0.6,0.8,1,1.5,1.1
	c0.1,0,0.1,0,0.2,0c0.4-0.1,0.7-0.5,0.8-1.1c0-0.3,0.1-0.5,0.1-0.7c0.2-0.2,0.3-0.4,0.4-0.6c0.1-0.3,0.2-0.7,0.3-1
	c0.1-0.4,0.2-0.7,0.2-1c0-0.2,0.1-0.4,0.2-0.5l0.1-0.1v-0.1c0-0.4,0.1-0.8,0.2-1.4c0.1-0.5,0.2-1.1,0.3-1.6s0.3-1.1,0.4-1.6
	c0.1-0.4,0.3-0.8,0.5-1.1c0.1-0.1,0.2-0.2,0.3-0.2c0.2-0.2,0.4-0.3,0.7-0.5c0.2-0.2,0.5-0.4,0.7-0.6c0.1-0.1,0.2-0.2,0.3-0.3
	c0.5,0.6,1.1,1.2,1.7,1.7c0.7,0.5,1.3,1.1,1.9,1.8c0.1,0.2,0.3,0.4,0.5,0.6l0.9,0.7c0.3,0.2,0.7,0.5,1,0.7s0.6,0.4,0.8,0.5
	c0.2,0.2,0.5,0.4,0.6,0.6c0.2,0.3,0.6,0.6,1,0.7c0.1,0.2,0.3,0.3,0.5,0.5l0.7,0.6c0.2,0.2,0.5,0.4,0.7,0.6c0.2,0.2,0.5,0.3,0.7,0.3
	c0.2,0,0.4,0.1,0.6,0.3c0.2,0.2,0.5,0.4,0.7,0.6c0.3,0.2,0.7,0.4,1.1,0.5c0.5,0.1,1,0.1,1.5,0c0.2,0,0.4-0.1,0.5-0.3
	c0.1-0.2,0.2-0.4,0.1-0.6l-0.2-0.4c0.1-0.2,0.1-0.3,0-0.5c-0.1-0.4-0.2-0.8-0.4-1.1c0.6,0.3,1.3,0.4,2,0.4c0.1,0,0.2,0,0.4,0
	c0.2,0,0.5,0,0.7,0l0.4,0.1l0.3-0.3c0.2-0.2,0.5-0.3,0.8-0.3c0.4,0,0.8-0.1,1.1-0.4c0.6-0.2,1.1-0.4,1.6-0.7
	c0.4-0.3,0.9-0.5,1.3-0.7l0.2-0.1c0.2-0.1,0.3-0.3,0.5-0.5h0.1c0.3-0.1,0.7-0.2,0.9-0.5c0.1-0.1,0.2-0.2,0.2-0.3h0.1
	c0.7-0.1,1.1-0.4,1.2-0.9l0.4,0.1l0.4-0.7l0.1,0v-0.1c0.2-0.1,0.4-0.2,0.6-0.4c0.2-0.2,0.4-0.3,0.5-0.5c0.1-0.2,0.2-0.4,0.3-0.6h0
	c0.6-0.2,1.1-0.5,1.5-1c0.5-0.6,1-1.3,1.4-1.9c0.5-0.7,0.9-1.4,1.3-2.2s0.7-1.3,0.9-1.8l0.2-0.4l-0.1-0.2c0.1-0.1,0.2-0.3,0.3-0.6
	c0.1-0.1,0.1-0.2,0.2-0.4c0.3-0.2,0.5-0.4,0.7-0.8c0.2-0.4,0.3-0.8,0.5-1.2c0.1-0.4,0.3-0.9,0.4-1.3c0.1-0.2,0.2-0.4,0.3-0.7
	c0.3-0.2,0.5-0.5,0.7-0.8c0.1-0.2,0.2-0.4,0.3-0.6l0.4,0.2l-0.2-1l0.1-0.2c0.2-0.5,0.3-0.9,0.5-1.3c0.1-0.3,0.3-0.6,0.5-0.9v0.1
	c0,0.1-0.1,0.3,0,0.4l0.1,0.4c0.2,0.6,0.6,1.2,1,1.8c0.4,0.5,1.2,0.7,2.3,0.5l0.5-0.1c-0.1,0.4-0.2,0.7-0.4,1.1s-0.3,0.9-0.4,1.2
	c-0.1,0.2-0.1,0.3-0.1,0.5c-0.2,0.2-0.4,0.5-0.4,0.9c-0.1,0.2-0.1,0.5-0.1,0.7c-0.2,0.3-0.3,0.6-0.4,0.9c-0.1,0.4-0.2,0.8-0.3,1.1
	c-0.1,0.4-0.1,0.7-0.1,1c0,0.2,0,0.4,0,0.6v0.1c-0.1,0.3-0.2,0.5-0.2,0.8c0,0.4-0.1,0.7-0.1,1.2c0,0.4,0,0.9,0.1,1.3
	c0.1,0.4,0.1,0.7,0.1,1c0.1,0.9,0.4,1.7,0.8,2.5c0.4,0.8,1,1.4,1.7,1.9c0.2,0.2,0.5,0.2,0.8,0.2h0.1c0.2,0,0.4,0,0.6-0.1
	c0.5-0.1,1-0.4,1.4-0.7c0.5-0.4,1-0.8,1.4-1.3c0.5-0.5,0.9-0.9,1.3-1.4c0.3-0.3,0.5-0.6,0.8-0.8l0.1,0c0.4-0.3,0.8-0.7,1-1.1
	c0.2-0.4,0.4-0.8,0.6-1.1l0.2-0.4l0.5-0.8l-0.2,0.2c0.1-0.2,0.3-0.4,0.6-0.6c0.2-0.2,0.4-0.4,0.5-0.6c0.2-0.3,0.4-0.6,0.6-1l0.6-1
	c0.1-0.2,0.2-0.4,0.3-0.6c0.1-0.2,0.2-0.3,0.3-0.4c0.3-0.2,0.4-0.5,0.4-0.8c0-0.3,0.1-0.6,0.3-0.8C187.3,31.2,187.2,30.8,187,30.5z
	 M149.2,34.4c0.3-0.5,0.7-1,1-1.4l0.1-0.1c0.3-0.3,0.6-0.5,0.9-0.9c0.3-0.3,0.6-0.7,0.9-1c0.3-0.4,0.7-0.8,1.2-1.1
	c0.6-0.3,1.2-0.6,1.7-0.8l0.4-0.2c0,0.1-0.1,0.2-0.1,0.2c-0.2,0.3-0.5,0.7-0.8,1.1s-0.6,0.7-0.9,1.1c-0.3,0.3-0.5,0.6-0.7,0.8
	l-0.1,0.1c-0.4,0.4-0.8,0.8-1.1,1.1c-0.3,0.3-0.7,0.6-1,0.8l-0.2,0.1l-0.1,0.1c-0.3,0.4-0.7,0.7-1.1,0.9l-0.7,0.4
	C148.8,35.2,149,34.8,149.2,34.4z M86.6,41.5c-0.2,0-0.3,0.2-0.5,0.6c-0.2,0.3-0.3,0.6-0.4,0.9c-0.1,0.3-0.2,0.6-0.4,0.8
	c-0.1,0.1-0.1,0.2-0.1,0.3c-0.8,1.2-1.6,2.4-2.4,3.7c-0.8,1.3-1.6,2.5-2.4,3.6c-0.5,0.2-0.9,0.6-1.2,1c-0.2,0.3-0.5,0.6-0.8,0.9
	c-0.6,0.2-1.1,0.6-1.5,1.1c-0.2,0.2-0.4,0.5-0.7,0.6c0-0.1,0.1-0.3,0.1-0.5c0-0.1,0-0.3,0-0.5c0.5-0.9,1.1-1.9,1.7-2.8
	c0.6-1,1.2-2,1.8-3l0.1-0.3c0.8-1.2,1.7-2.3,2.6-3.4c1-1.2,2.3-2.2,3.6-3.1c0.2-0.1,0.4-0.2,0.6-0.3l0.1-0.1
	C86.6,41.4,86.6,41.5,86.6,41.5z"/>
</svg>
